<?xml version="1.0" encoding="UTF-8" standalone="no"?>
<!-- Created with Inkscape (http://www.inkscape.org/) -->

<svg
   width="210mm"
   height="297mm"
   viewBox="0 0 210 297"
   version="1.1"
   id="svg1"
   xmlns="http://www.w3.org/2000/svg"
   xmlns:svg="http://www.w3.org/2000/svg">
  <defs
     id="defs1" />
  <g
     id="layer1">
    <path
       id="path1"
       style="fill:#000000;stroke-width:0.420461"
       d="M 68.777713,-0.02273767 A 68.70719,68.70719 0 0 0 0.07028033,68.684696 68.70719,68.70719 0 0 0 68.777713,137.39212 68.70719,68.70719 0 0 0 137.48514,68.684696 68.70719,68.70719 0 0 0 68.777713,-0.02273767 Z M 31.434884,36.311737 c 4.534278,-0.125404 12.511099,1.880756 25.722789,7.454364 52.846797,22.294435 80.352227,37.157305 50.992887,39.832642 -29.359317,2.67533 -79.733347,28.239717 -74.78862,8.32336 4.944731,-19.916347 62.117673,-19.618717 36.157833,-25.563897 -25.95982,-5.94519 -57.173658,15.160207 -45.738971,2.67533 11.434686,-12.484893 11.43541,-12.781952 11.43541,-12.781952 0,0 -17.384161,-19.563629 -3.781328,-19.939847 z" />
  </g>
</svg>
